<svg width="48" height="48" viewBox="0 0 48 48" fill="none" xmlns="http://www.w3.org/2000/svg">
<path opacity="0.5" d="M12.3333 9.99996C11.7145 9.99996 11.121 9.75413 10.6834 9.31654C10.2458 8.87896 10 8.28546 10 7.66663V2.99996C10 2.38112 10.2458 1.78763 10.6834 1.35004C11.121 0.912459 11.7145 0.666626 12.3333 0.666626C12.9522 0.666626 13.5457 0.912459 13.9832 1.35004C14.4208 1.78763 14.6667 2.38112 14.6667 2.99996V7.66663C14.6667 8.28506 14.4212 8.8782 13.9841 9.31572C13.547 9.75324 12.9541 9.99934 12.3357 9.99996H12.3333ZM35.6667 9.99996C35.0478 9.99996 34.4543 9.75413 34.0167 9.31654C33.5792 8.87896 33.3333 8.28546 33.3333 7.66663V2.99996C33.3333 2.38112 33.5792 1.78763 34.0167 1.35004C34.4543 0.912459 35.0478 0.666626 35.6667 0.666626C36.2855 0.666626 36.879 0.912459 37.3166 1.35004C37.7542 1.78763 38 2.38112 38 2.99996V7.66663C38 8.28506 37.7545 8.8782 37.3174 9.31572C36.8803 9.75324 36.2874 9.99934 35.669 9.99996H35.6667Z" fill="#2D76F9"/>
<path d="M40.3333 5.33337H38V7.66671C38 8.28555 37.7542 8.87904 37.3166 9.31662C36.879 9.75421 36.2855 10 35.6667 10C35.0478 10 34.4543 9.75421 34.0168 9.31662C33.5792 8.87904 33.3333 8.28555 33.3333 7.66671V5.33337H14.6667V7.66671C14.6667 8.28555 14.4208 8.87904 13.9833 9.31662C13.5457 9.75421 12.9522 10 12.3333 10C11.7145 10 11.121 9.75421 10.6834 9.31662C10.2458 8.87904 10 8.28555 10 7.66671V5.33337H7.66667C5.81016 5.33337 4.02968 6.07087 2.71692 7.38363C1.40417 8.69638 0.666672 10.4769 0.666672 12.3334V17H47.3333V12.3334C47.3333 10.4769 46.5958 8.69638 45.2831 7.38363C43.9703 6.07087 42.1899 5.33337 40.3333 5.33337Z" fill="#2D76F9"/>
<path d="M12.3333 28.6667C13.622 28.6667 14.6667 27.622 14.6667 26.3333C14.6667 25.0447 13.622 24 12.3333 24C11.0447 24 10 25.0447 10 26.3333C10 27.622 11.0447 28.6667 12.3333 28.6667Z" fill="#2D76F9"/>
<path d="M12.3333 38C13.622 38 14.6667 36.9554 14.6667 35.6667C14.6667 34.378 13.622 33.3334 12.3333 33.3334C11.0447 33.3334 10 34.378 10 35.6667C10 36.9554 11.0447 38 12.3333 38Z" fill="#2D76F9"/>
<path d="M24 28.6667C25.2887 28.6667 26.3333 27.622 26.3333 26.3333C26.3333 25.0447 25.2887 24 24 24C22.7113 24 21.6667 25.0447 21.6667 26.3333C21.6667 27.622 22.7113 28.6667 24 28.6667Z" fill="#2D76F9"/>
<path d="M24 38C25.2887 38 26.3333 36.9554 26.3333 35.6667C26.3333 34.378 25.2887 33.3334 24 33.3334C22.7113 33.3334 21.6667 34.378 21.6667 35.6667C21.6667 36.9554 22.7113 38 24 38Z" fill="#2D76F9"/>
<path d="M35.6667 28.6667C36.9553 28.6667 38 27.622 38 26.3333C38 25.0447 36.9553 24 35.6667 24C34.378 24 33.3333 25.0447 33.3333 26.3333C33.3333 27.622 34.378 28.6667 35.6667 28.6667Z" fill="#2D76F9"/>
<path d="M35.6667 38C36.9553 38 38 36.9554 38 35.6667C38 34.378 36.9553 33.3334 35.6667 33.3334C34.378 33.3334 33.3333 34.378 33.3333 35.6667C33.3333 36.9554 34.378 38 35.6667 38Z" fill="#2D76F9"/>
<path opacity="0.5" d="M0.666672 17V40.3333C0.666672 42.1898 1.40417 43.9703 2.71692 45.2831C4.02968 46.5958 5.81016 47.3333 7.66667 47.3333H40.3333C42.1899 47.3333 43.9703 46.5958 45.2831 45.2831C46.5958 43.9703 47.3333 42.1898 47.3333 40.3333V17H0.666672ZM12.3333 38C11.7145 38 11.121 37.7542 10.6834 37.3166C10.2458 36.879 10 36.2855 10 35.6667C10 35.0478 10.2458 34.4543 10.6834 34.0168C11.121 33.5792 11.7145 33.3333 12.3333 33.3333C12.9522 33.3333 13.5457 33.5792 13.9833 34.0168C14.4208 34.4543 14.6667 35.0478 14.6667 35.6667C14.6667 36.2855 14.4208 36.879 13.9833 37.3166C13.5457 37.7542 12.9522 38 12.3333 38ZM12.3333 28.6667C11.7145 28.6667 11.121 28.4208 10.6834 27.9832C10.2458 27.5457 10 26.9522 10 26.3333C10 25.7145 10.2458 25.121 10.6834 24.6834C11.121 24.2458 11.7145 24 12.3333 24C12.9522 24 13.5457 24.2458 13.9833 24.6834C14.4208 25.121 14.6667 25.7145 14.6667 26.3333C14.6667 26.9522 14.4208 27.5457 13.9833 27.9832C13.5457 28.4208 12.9522 28.6667 12.3333 28.6667ZM24 38C23.3812 38 22.7877 37.7542 22.3501 37.3166C21.9125 36.879 21.6667 36.2855 21.6667 35.6667C21.6667 35.0478 21.9125 34.4543 22.3501 34.0168C22.7877 33.5792 23.3812 33.3333 24 33.3333C24.6188 33.3333 25.2123 33.5792 25.6499 34.0168C26.0875 34.4543 26.3333 35.0478 26.3333 35.6667C26.3333 36.2855 26.0875 36.879 25.6499 37.3166C25.2123 37.7542 24.6188 38 24 38ZM24 28.6667C23.3812 28.6667 22.7877 28.4208 22.3501 27.9832C21.9125 27.5457 21.6667 26.9522 21.6667 26.3333C21.6667 25.7145 21.9125 25.121 22.3501 24.6834C22.7877 24.2458 23.3812 24 24 24C24.6188 24 25.2123 24.2458 25.6499 24.6834C26.0875 25.121 26.3333 25.7145 26.3333 26.3333C26.3333 26.9522 26.0875 27.5457 25.6499 27.9832C25.2123 28.4208 24.6188 28.6667 24 28.6667ZM35.6667 38C35.0478 38 34.4543 37.7542 34.0168 37.3166C33.5792 36.879 33.3333 36.2855 33.3333 35.6667C33.3333 35.0478 33.5792 34.4543 34.0168 34.0168C34.4543 33.5792 35.0478 33.3333 35.6667 33.3333C36.2855 33.3333 36.879 33.5792 37.3166 34.0168C37.7542 34.4543 38 35.0478 38 35.6667C38 36.2855 37.7542 36.879 37.3166 37.3166C36.879 37.7542 36.2855 38 35.6667 38ZM35.6667 28.6667C35.0478 28.6667 34.4543 28.4208 34.0168 27.9832C33.5792 27.5457 33.3333 26.9522 33.3333 26.3333C33.3333 25.7145 33.5792 25.121 34.0168 24.6834C34.4543 24.2458 35.0478 24 35.6667 24C36.2855 24 36.879 24.2458 37.3166 24.6834C37.7542 25.121 38 25.7145 38 26.3333C38 26.9522 37.7542 27.5457 37.3166 27.9832C36.879 28.4208 36.2855 28.6667 35.6667 28.6667Z" fill="#2D76F9"/>
</svg>
