<svg width="31" height="30" viewBox="0 0 31 30" fill="none" xmlns="http://www.w3.org/2000/svg">
<path d="M4.506 7.49974H4.4625C4.00192 7.52853 3.54035 7.46191 3.10671 7.30407C2.67306 7.14623 2.27667 6.90056 1.94235 6.58244C1.60804 6.26432 1.34301 5.8806 1.16384 5.45532C0.984682 5.03004 0.895252 4.57234 0.901153 4.1109C0.907054 3.64946 1.00816 3.1942 1.19814 2.77364C1.38812 2.35307 1.66288 1.97626 2.00522 1.6668C2.34756 1.35733 2.7501 1.12188 3.18765 0.975174C3.62519 0.828473 4.08831 0.773685 4.548 0.814241C5.00859 0.782065 5.47086 0.845376 5.90584 1.0002C6.34082 1.15503 6.73913 1.39804 7.07581 1.714C7.41248 2.02996 7.68026 2.41205 7.86236 2.83634C8.04447 3.26062 8.13697 3.71795 8.13407 4.17965C8.13116 4.64135 8.03293 5.09748 7.84551 5.51945C7.65809 5.94141 7.38553 6.32011 7.04491 6.63181C6.70429 6.94351 6.30296 7.1815 5.86607 7.33085C5.42918 7.4802 4.96615 7.5377 4.506 7.49974V7.49974Z" fill="#2D76F9"/>
<path d="M1.52698 12H7.52698V30H1.52698V12Z" fill="#2D76F9"/>
<path d="M23.277 12C22.266 12.0027 21.2687 12.2339 20.3596 12.6763C19.4504 13.1186 18.6531 13.7607 18.027 14.5545V12H12.027V30H18.027V21.75C18.027 20.9544 18.343 20.1913 18.9057 19.6287C19.4683 19.0661 20.2313 18.75 21.027 18.75C21.8226 18.75 22.5857 19.0661 23.1483 19.6287C23.7109 20.1913 24.027 20.9544 24.027 21.75V30H30.027V18.75C30.027 16.9598 29.3158 15.2429 28.0499 13.977C26.7841 12.7112 25.0672 12 23.277 12Z" fill="#2D76F9"/>
</svg>
