<svg width="48" height="48" viewBox="0 0 48 48" fill="none" xmlns="http://www.w3.org/2000/svg">
<path opacity="0.25" d="M24 29.1217C23.5893 29.1217 23.188 29.0144 22.8333 28.8114L1.83331 16.6827C1.47863 16.4779 1.1841 16.1833 0.979325 15.8286C0.774552 15.4739 0.666748 15.0716 0.666748 14.662C0.666748 14.2525 0.774552 13.8501 0.979325 13.4954C1.1841 13.1407 1.47863 12.8462 1.83331 12.6414L22.8333 0.52203C23.5566 0.10903 24.4433 0.10903 25.1666 0.52203L46.1666 12.6414C46.5213 12.8462 46.8159 13.1407 47.0206 13.4954C47.2254 13.8501 47.3332 14.2525 47.3332 14.662C47.3332 15.0716 47.2254 15.4739 47.0206 15.8286C46.8159 16.1833 46.5213 16.4779 46.1666 16.6827L25.1666 28.8114C24.8116 29.0152 24.4093 29.1222 24 29.1217Z" fill="#2D76F9"/>
<path opacity="0.5" d="M46.1666 21.9746L41.584 19.3286L25.1666 28.8113C24.4433 29.2266 23.5566 29.2266 22.8333 28.8113L6.41598 19.3286L1.83331 21.9746C1.47863 22.1794 1.1841 22.474 0.979325 22.8287C0.774552 23.1834 0.666748 23.5857 0.666748 23.9953C0.666748 24.4048 0.774552 24.8072 0.979325 25.1619C1.1841 25.5166 1.47863 25.8111 1.83331 26.0159L22.8333 38.1446C23.5566 38.5599 24.4433 38.5599 25.1666 38.1446L46.1666 26.0159C46.5213 25.8111 46.8159 25.5166 47.0206 25.1619C47.2254 24.8072 47.3332 24.4048 47.3332 23.9953C47.3332 23.5857 47.2254 23.1834 47.0206 22.8287C46.8159 22.474 46.5213 22.1794 46.1666 21.9746V21.9746Z" fill="#2D76F9"/>
<path d="M46.1666 31.308L41.584 28.662L25.1666 38.1447C24.4433 38.56 23.5566 38.56 22.8333 38.1447L6.41598 28.662L1.83331 31.308C1.47863 31.5128 1.1841 31.8073 0.979325 32.162C0.774552 32.5167 0.666748 32.9191 0.666748 33.3287C0.666748 33.7382 0.774552 34.1406 0.979325 34.4953C1.1841 34.85 1.47863 35.1445 1.83331 35.3493L22.8333 47.478C23.5566 47.8933 24.4433 47.8933 25.1666 47.478L46.1666 35.3493C46.5213 35.1445 46.8159 34.85 47.0206 34.4953C47.2254 34.1406 47.3332 33.7382 47.3332 33.3287C47.3332 32.9191 47.2254 32.5167 47.0206 32.162C46.8159 31.8073 46.5213 31.5128 46.1666 31.308Z" fill="#2D76F9"/>
</svg>
